<svg id="Layer_1" data-name="Layer 1" xmlns="http://www.w3.org/2000/svg" viewBox="0 0 52 52"><defs><style>.cls-1{fill:none;stroke-linejoin:round;}.cls-1,.cls-2{stroke:#464646;stroke-width:1.75px;}.cls-2{fill:#00aaca;stroke-miterlimit:10;}.cls-3{fill:#fff;}</style></defs><title>Cash_back_3</title><polygon class="cls-1" points="51.59 26.29 10.11 26.29 0.41 18.76 41.89 18.76 51.59 26.29"/><polyline class="cls-1" points="0.41 18.76 0.41 33.59 10.11 41.51 51.59 41.51 51.59 26.29"/><line class="cls-1" x1="10.11" y1="26.29" x2="10.11" y2="41.51"/><polygon class="cls-2" points="38.99 26.34 25.78 26.34 17.05 19.16 30.27 19.16 38.99 26.34"/><rect class="cls-2" x="25.34" y="26.29" width="13.53" height="15.21"/><path class="cls-1" d="M17.05,19.2A10.61,10.61,0,0,1,6.67,6.47l8.2,7.14A10.61,10.61,0,0,0,25.25,26.34"/><polyline class="cls-1" points="0.57 22.45 9.47 29.55 25.25 29.55"/><polyline class="cls-1" points="0.57 26.33 9.47 33.43 25.25 33.43"/><polyline class="cls-1" points="0.57 30.21 9.47 37.31 25.25 37.31"/><line class="cls-1" x1="12.43" y1="18.76" x2="22.03" y2="26.29"/><line class="cls-1" x1="38.87" y1="29.55" x2="51.37" y2="29.55"/><line class="cls-1" x1="38.92" y1="33.43" x2="51.37" y2="33.43"/><line class="cls-1" x1="38.87" y1="37.31" x2="51.37" y2="37.31"/><path class="cls-3" d="M31.43,36.94A5.08,5.08,0,0,1,29,36.05l0.8-1.19a4,4,0,0,0,1.66.73V34.53c-1.44-.33-2.17-0.82-2.17-1.93v0c0-1.05.77-1.79,2.13-1.88V30.18h0.93v0.54a4.06,4.06,0,0,1,1.88.7l-0.73,1.2a3.58,3.58,0,0,0-1.2-.54v1c1.42,0.33,2.13.84,2.13,1.95v0c0,1.09-.84,1.76-2.11,1.88v0.88H31.43V36.94ZM31.5,32c-0.44,0-.61.21-0.61,0.45v0c0,0.23.13,0.37,0.61,0.5V32Zm1.43,3.2v0c0-.24-0.13-0.38-0.6-0.51v1C32.74,35.61,32.92,35.45,32.92,35.2Z"/></svg>