<?xml version="1.0" encoding="UTF-8" standalone="no"?>
<svg width="60px" height="60px" viewBox="0 0 60 60" version="1.1" xmlns="http://www.w3.org/2000/svg" xmlns:xlink="http://www.w3.org/1999/xlink">
    <!-- Generator: Sketch 39.1 (31720) - http://www.bohemiancoding.com/sketch -->
    <title>Gauge_hover</title>
    <desc>Created with Sketch.</desc>
    <defs>
        <polygon id="path-1" points="2.641013 0.474849279 0.251497736 0.474849279 0.251497736 2.85144853 2.641013 2.85144853 2.641013 0.474849279"></polygon>
    </defs>
    <g id="Page-1" stroke="none" stroke-width="1" fill="none" fill-rule="evenodd">
        <g id="Gauge_hover">
            <g id="Group-3" transform="translate(3.000000, 24.695582)">
                <path d="M52.0732227,26.0903298 C52.0739397,26.025448 52.0782412,25.9612792 52.0782412,25.8956844 C52.0782412,11.5938801 40.4203031,0 26.0394791,0 C11.6579381,0 0,11.5938801 0,25.8956844 C0,25.9612792 0.00501848389,26.025448 0.00501848389,26.0903298 L7.64745253,26.0903298 L7.65103716,26.0660883 C7.65103716,26.0197441 7.64745253,25.974113 7.64745253,25.9284818 C7.64745253,15.8268833 15.8820677,7.63822872 26.0394791,7.63822872 C36.1961736,7.63822872 44.4307887,15.8268833 44.4307887,25.9284818 C44.4307887,25.974113 44.4272041,26.0197441 44.4272041,26.0660883 L52.0732227,26.0903298 Z" id="Fill-1" fill="#FECA05"></path>
                <path d="M27.6159999,26.0903298 L52.0725058,26.0903298 C52.0732227,26.025448 52.0775243,25.9605662 52.0775243,25.8956844 C52.0775243,11.5938801 40.4195862,0 26.0387621,0 C11.6579381,0 0,11.5938801 0,25.8956844 C0,25.9605662 0.00430155762,26.025448 0.00501848389,26.0903298 L24.7669349,26.0903298" id="Stroke-19" stroke="#474647" stroke-width="1.75" stroke-linecap="round" stroke-linejoin="round"></path>
                <path d="M11.4708203,4.99090834 L13.0265503,6.9423535" id="Stroke-21" stroke="#474647" stroke-width="1.75" stroke-linecap="round" stroke-linejoin="round"></path>
                <path d="M26.526272,0 L26.526272,2.87975411" id="Stroke-23" stroke="#474647" stroke-width="1.75" stroke-linecap="round" stroke-linejoin="round"></path>
                <path d="M2.86770508,14.972725 L5.77627496,16.2760651" id="Stroke-25" stroke="#474647" stroke-width="1.75" stroke-linecap="round" stroke-linejoin="round"></path>
                <path d="M40.9866749,4.99090834 L39.4309449,6.9423535" id="Stroke-27" stroke="#474647" stroke-width="1.75" stroke-linecap="round" stroke-linejoin="round"></path>
                <polyline id="Stroke-29" stroke="#474647" stroke-width="1.75" stroke-linecap="round" stroke-linejoin="round" points="49.5895377 15 47.7681591 15.9167179 47 16.3033401"></polyline>
                <path d="M33.4352905,25.8942584 C33.4352905,29.5632891 30.4442741,32.5378704 26.7549715,32.5378704 C23.064952,32.5378704 20.0739356,29.5632891 20.0739356,25.8942584 C20.0739356,22.2252278 23.064952,19.2506465 26.7549715,19.2506465 C30.4442741,19.2506465 33.4352905,22.2252278 33.4352905,25.8942584" id="Fill-51" fill="#FFFFFF"></path>
                <path d="M33.4352905,25.8942584 C33.4352905,29.5632891 30.4442741,32.5378704 26.7549715,32.5378704 C23.064952,32.5378704 20.0739356,29.5632891 20.0739356,25.8942584 C20.0739356,22.2252278 23.064952,19.2506465 26.7549715,19.2506465 C30.4442741,19.2506465 33.4352905,22.2252278 33.4352905,25.8942584 L33.4352905,25.8942584 Z" id="Stroke-53" stroke="#474647" stroke-width="1.75" stroke-linecap="round" stroke-linejoin="round"></path>
                <path d="M38.8046074,30.4244228 C38.3457746,30.5884098 37.8403415,30.3516982 37.6754485,29.8953865 C37.5098385,29.4390749 37.748575,28.9364191 38.2066909,28.7724322 C38.6655237,28.6084452 39.1709567,28.8451568 39.3365667,29.3014684 C39.5014597,29.7577801 39.2634402,30.2604358 38.8046074,30.4244228 M30.5076197,6.81243546 C30.4316255,6.63917964 30.2351877,6.55290822 30.056673,6.61707705 C29.8810261,6.7012095 29.7806564,6.87375233 29.8351428,7.05627698 C36.6674502,29.9709631 36.8007985,30.3210397 36.8051,30.3331605 C37.1477908,31.2807201 38.2023893,31.77482 39.1551843,31.4332993 C40.1086963,31.0924915 40.6048092,30.0436878 40.2621185,29.0961282 C40.2571,29.0825815 40.0685484,28.5934724 30.5076197,6.81243546" id="Fill-55" fill="#00ABCB" transform="translate(35.095461, 19.068693) rotate(69.000000) translate(-35.095461, -19.068693) "></path>
            </g>
            <path d="M42.3667979,20.1717581 C42.3667979,21.3710021 41.3889105,22.3435162 40.1830405,22.3435162 C38.9771705,22.3435162 38,21.3710021 38,20.1717581 C38,18.9725141 38.9771705,18 40.1830405,18 C41.3889105,18 42.3667979,18.9725141 42.3667979,20.1717581" id="Fill-3-Copy" fill="#FECA05"></path>
            <path d="M52.8282741,16.4067232 C52.8282741,17.1838789 52.1952282,17.8134463 51.4137786,17.8134463 C50.6330459,17.8134463 50,17.1838789 50,16.4067232 C50,15.6302804 50.6330459,15 51.4137786,15 C52.1952282,15 52.8282741,15.6302804 52.8282741,16.4067232" id="Fill-5-Copy" fill="#FECA05"></path>
            <path d="M55.0973678,27 L55.0973678,32.9902344" id="Stroke-7-Copy" stroke="#FECA05" stroke-width="1.75" stroke-linecap="round" stroke-linejoin="round"></path>
            <path d="M57.9790039,30.0662002 L52.1976318,30.0662002" id="Stroke-9-Copy" stroke="#FECA05" stroke-width="1.75" stroke-linecap="round" stroke-linejoin="round"></path>
            <g id="Group-2" transform="translate(4.000000, 24.000000)" stroke="#FECA05" stroke-width="1.75" stroke-linecap="round" stroke-linejoin="round">
                <path d="M2.23430072,0 L2.23430072,4.44404738" id="Stroke-11-Copy"></path>
                <path d="M4.46860144,2.22202369 L0,2.22202369" id="Stroke-13-Copy"></path>
            </g>
            <g id="Group" transform="translate(23.000000, 15.000000)" stroke="#FECA05" stroke-width="1.75" stroke-linecap="round" stroke-linejoin="round">
                <path d="M1.45643152,0 L1.45643152,2.88336709" id="Stroke-15-Copy"></path>
                <path d="M2.91286304,1.44168355 L0,1.44168355" id="Stroke-17-Copy"></path>
            </g>
            <path d="M13.3895153,15.1885492 C13.3895153,15.8444971 12.8546883,16.3770983 12.1943992,16.3770983 C11.534827,16.3770983 11,15.8444971 11,15.1885492 C11,14.5326012 11.534827,14 12.1943992,14 C12.8546883,14 13.3895153,14.5326012 13.3895153,15.1885492" id="Fill-57-Copy" fill="#FECA05"></path>
            <g id="Group-61-Copy" transform="translate(32.000000, 6.000000)">
                <mask id="mask-2" fill="white">
                    <use xlink:href="#path-1"></use>
                </mask>
                <g id="Clip-60"></g>
                <path d="M2.641013,1.66289936 C2.641013,2.31884731 2.106186,2.85144853 1.4458969,2.85144853 C0.786324734,2.85144853 0.251497736,2.31884731 0.251497736,1.66289936 C0.251497736,1.00695141 0.786324734,0.474350188 1.4458969,0.474350188 C2.106186,0.474350188 2.641013,1.00695141 2.641013,1.66289936" id="Fill-59" fill="#FECA05" mask="url(#mask-2)"></path>
            </g>
        </g>
    </g>
</svg>