<svg id="Layer_1" data-name="Layer 1" xmlns="http://www.w3.org/2000/svg" viewBox="0 0 54 53"><defs><style>.cls-1{fill:#fff;}.cls-1,.cls-2,.cls-3{stroke:#474647;stroke-linejoin:round;stroke-width:1.75px;}.cls-2,.cls-4{fill:#00abcb;}.cls-3{fill:none;}</style></defs><title>House_pricetag</title><polyline class="cls-1" points="30.36 51.79 4.03 51.79 4.03 34.08 37.56 22.48 37.56 35.28"/><polygon class="cls-2" points="39.98 22.96 1.89 35.95 1.89 32 39.98 18.83 39.98 22.96"/><circle class="cls-3" cx="45.25" cy="46.02" r="0.29"/><rect class="cls-3" x="29.91" y="35.94" width="21.35" height="15.85"/><rect class="cls-2" x="28.56" y="31.68" width="24.04" height="4.26"/><rect class="cls-3" x="7.42" y="23.12" width="0.86" height="6.47"/><polygon class="cls-3" points="12.13 27.38 11.28 28.38 11.28 24.33 12.13 24.33 12.13 27.38"/><rect class="cls-2" x="8.82" y="37.4" width="14.4" height="14.4"/><line class="cls-3" x1="9.28" y1="42.48" x2="23.21" y2="42.48"/><line class="cls-3" x1="9.28" y1="47.48" x2="23.21" y2="47.48"/><rect class="cls-2" x="42.05" y="40.81" width="5.83" height="10.98"/><rect class="cls-3" x="32.88" y="40.81" width="5.36" height="5.84"/><polygon class="cls-3" points="1.39 9.86 9.51 1.21 18.48 9.62 20.27 14.38 15.22 19.76 10.36 18.27 1.39 9.86"/><path class="cls-4" d="M8.69,8.26A6.23,6.23,0,0,1,11.5,6.84l0.39,1.71a4.87,4.87,0,0,0-2,.87l1,0.9c1.5-1,2.55-1.25,3.54-.32h0c0.94,0.88,1,2.18-.11,3.49l0.45,0.43-0.78.83-0.48-.45a5,5,0,0,1-2.2,1.1l-0.46-1.66a4.36,4.36,0,0,0,1.48-.62l-0.93-.87c-1.49,1-2.54,1.2-3.53.27l0,0c-1-.91-0.87-2.22.09-3.46L7.11,8.34l0.78-.83ZM13,12.45c0.33-.42.32-0.72,0.11-0.92h0c-0.21-.19-0.43-0.2-1,0.12ZM9,11l0,0c0.22,0.2.45,0.19,1-.11l-0.88-.82C8.78,10.54,8.76,10.83,9,11Z"/><path class="cls-3" d="M17.5,17.22a14.48,14.48,0,0,1,4.84,7.71"/></svg>