<svg id="Layer_1" data-name="Layer 1" xmlns="http://www.w3.org/2000/svg" viewBox="0 0 53 52"><defs><style>.cls-1{fill:#fff;}.cls-1,.cls-2,.cls-3{stroke:#474647;stroke-linejoin:round;stroke-width:1.75px;}.cls-2{fill:#00abcb;}.cls-3{fill:none;}</style></defs><title>House_4</title><polyline class="cls-1" points="29.62 50.75 3.28 50.75 3.28 33.04 36.81 21.44 36.81 34.24"/><polygon class="cls-2" points="39.23 21.93 1.14 34.91 1.14 30.96 39.23 17.79 39.23 21.93"/><circle class="cls-3" cx="44.5" cy="44.98" r="0.29"/><rect class="cls-3" x="29.16" y="34.91" width="21.35" height="15.85"/><rect class="cls-2" x="27.82" y="30.64" width="24.04" height="4.26"/><rect class="cls-3" x="6.67" y="21.63" width="0.86" height="7.04"/><polygon class="cls-3" points="11.38 26.34 10.53 27.34 10.53 23.3 11.38 23.3 11.38 26.34"/><rect class="cls-2" x="8.07" y="36.36" width="14.4" height="14.4"/><line class="cls-3" x1="8.53" y1="41.44" x2="22.47" y2="41.44"/><line class="cls-3" x1="8.53" y1="46.44" x2="22.47" y2="46.44"/><rect class="cls-2" x="41.3" y="39.77" width="5.83" height="10.98"/><rect class="cls-3" x="32.13" y="39.77" width="5.36" height="5.84"/></svg>