<svg id="_fill_hover_40_white" data-name="_fill_hover_40%white" xmlns="http://www.w3.org/2000/svg" viewBox="0 0 54 54"><title>Approval</title><path d="M37.56,22.91a11.67,11.67,0,0,1-5.53-2l1.84-2.73a9.14,9.14,0,0,0,3.81,1.68V17.38c-3.3-.76-5-1.89-5-4.43v0c0-2.42,1.76-4.1,4.9-4.32V7.42h2.13V8.65a9.32,9.32,0,0,1,4.32,1.6L42.37,13a8.22,8.22,0,0,0-2.75-1.23v2.38c3.26,0.76,4.9,1.93,4.9,4.47v0c0,2.5-1.93,4-4.84,4.3v2H37.56v-2ZM37.7,11.58c-1,.08-1.39.49-1.39,1v0c0,0.53.29,0.84,1.39,1.15V11.58ZM41,18.92v0c0-.55-0.31-0.86-1.37-1.17V20C40.55,19.86,41,19.51,41,18.92Z" style="fill:#00abcb"/><path d="M47.25,34.67H33.81a2.77,2.77,0,0,0,0,5.54H47.25A2.77,2.77,0,0,0,47.25,34.67Z" style="fill:none;stroke:#464646;stroke-linecap:round;stroke-linejoin:round;stroke-width:1.75px"/><path d="M44.39,29.13H36.25a2.77,2.77,0,1,0,0,5.54h8.14A2.77,2.77,0,1,0,44.39,29.13Z" style="fill:none;stroke:#464646;stroke-linecap:round;stroke-linejoin:round;stroke-width:1.75px"/><path d="M27.65,28.93V24.56c0-2.6-1.79-5.24-4.29-5.28-0.61,0-1.14,0-1.09,1.77,0,1,0,15.25,0,15.25L4.09,36.25" style="fill:none;stroke:#464646;stroke-linecap:round;stroke-linejoin:round;stroke-width:1.75px"/><path d="M46.51,40.21H36.25a2.77,2.77,0,1,0,0,5.54H46.51A2.77,2.77,0,1,0,46.51,40.21Z" style="fill:none;stroke:#464646;stroke-linecap:round;stroke-linejoin:round;stroke-width:1.75px"/><path d="M44.39,45.75H36.25a2.77,2.77,0,1,0,0,5.54h8.14A2.77,2.77,0,1,0,44.39,45.75Z" style="fill:none;stroke:#464646;stroke-linecap:round;stroke-linejoin:round;stroke-width:1.75px"/><line x1="4.09" y1="51.29" x2="36.25" y2="51.29" style="fill:none;stroke:#464646;stroke-linecap:round;stroke-linejoin:round;stroke-width:1.75px"/><line x1="37.09" y1="29.13" x2="27.78" y2="29.13" style="fill:none;stroke:#464646;stroke-linecap:round;stroke-linejoin:round;stroke-width:1.75px"/><line x1="41.34" y1="2.75" x2="41.34" y2="4.86" style="fill:none;stroke:#474647;stroke-linecap:round;stroke-linejoin:round;stroke-width:1.75px"/><line x1="49.68" y1="11.59" x2="47.58" y2="11.59" style="fill:none;stroke:#474647;stroke-linecap:round;stroke-linejoin:round;stroke-width:1.75px"/><line x1="47.29" y1="5.68" x2="45.86" y2="7.11" style="fill:none;stroke:#474647;stroke-linecap:round;stroke-linejoin:round;stroke-width:1.75px"/></svg>